<svg xmlns="http://www.w3.org/2000/svg" width="1270" height="380" viewBox="0 0 1270 380">
<defs>
  <filter id="cardShadow" x="-20%" y="-20%" width="140%" height="150%">
    <feDropShadow dx="0" dy="4" stdDeviation="9" flood-color="#1A1A2E" flood-opacity="0.10"/>
  </filter>
  <filter id="cellShadow" x="-40%" y="-40%" width="180%" height="200%">
    <feDropShadow dx="0" dy="2" stdDeviation="2.2" flood-color="#3C4043" flood-opacity="0.18"/>
  </filter>
</defs>
<rect width="1270" height="380" fill="#F5F6F8"/>

<!-- Panel 1: Float weights -->
<text x="180" y="62" font-family="'Helvetica Neue', Helvetica, Arial, sans-serif" font-size="16" font-weight="600" fill="#202124" text-anchor="middle">Float weights</text>
<rect x="30" y="90" width="300" height="240" rx="18" ry="18" fill="#FFFFFF" filter="url(#cardShadow)"/>

<rect x="47" y="129" width="60" height="48" rx="8" ry="8" fill="#FBBC04" filter="url(#cellShadow)"/>
<text x="77" y="158.5" font-family="'Helvetica Neue', Helvetica, Arial, sans-serif" font-size="15.5" font-weight="600" fill="#202124" text-anchor="middle">2.1</text>
<rect x="116" y="129" width="60" height="48" rx="8" ry="8" fill="#FBBC04" filter="url(#cellShadow)"/>
<text x="146" y="158.5" font-family="'Helvetica Neue', Helvetica, Arial, sans-serif" font-size="15.5" font-weight="600" fill="#202124" text-anchor="middle">0.1</text>
<rect x="185" y="129" width="60" height="48" rx="8" ry="8" fill="#FBBC04" filter="url(#cellShadow)"/>
<text x="215" y="158.5" font-family="'Helvetica Neue', Helvetica, Arial, sans-serif" font-size="15.5" font-weight="600" fill="#202124" text-anchor="middle">2.5</text>
<rect x="254" y="129" width="60" height="48" rx="8" ry="8" fill="#FBBC04" filter="url(#cellShadow)"/>
<text x="284" y="158.5" font-family="'Helvetica Neue', Helvetica, Arial, sans-serif" font-size="15.5" font-weight="600" fill="#202124" text-anchor="middle">3.6</text>

<rect x="47" y="186" width="60" height="48" rx="8" ry="8" fill="#FBBC04" filter="url(#cellShadow)"/>
<text x="77" y="215.5" font-family="'Helvetica Neue', Helvetica, Arial, sans-serif" font-size="15.5" font-weight="600" fill="#202124" text-anchor="middle">0.6</text>
<rect x="116" y="186" width="60" height="48" rx="8" ry="8" fill="#FBBC04" filter="url(#cellShadow)"/>
<text x="146" y="215.5" font-family="'Helvetica Neue', Helvetica, Arial, sans-serif" font-size="15.5" font-weight="600" fill="#202124" text-anchor="middle">3.2</text>
<rect x="185" y="186" width="60" height="48" rx="8" ry="8" fill="#FBBC04" filter="url(#cellShadow)"/>
<text x="215" y="215.5" font-family="'Helvetica Neue', Helvetica, Arial, sans-serif" font-size="15.5" font-weight="600" fill="#202124" text-anchor="middle">0.1</text>
<rect x="254" y="186" width="60" height="48" rx="8" ry="8" fill="#FBBC04" filter="url(#cellShadow)"/>
<text x="284" y="215.5" font-family="'Helvetica Neue', Helvetica, Arial, sans-serif" font-size="15.5" font-weight="600" fill="#202124" text-anchor="middle">0.3</text>

<rect x="47" y="243" width="60" height="48" rx="8" ry="8" fill="#FBBC04" filter="url(#cellShadow)"/>
<text x="77" y="272.5" font-family="'Helvetica Neue', Helvetica, Arial, sans-serif" font-size="15.5" font-weight="600" fill="#202124" text-anchor="middle">0.4</text>
<rect x="116" y="243" width="60" height="48" rx="8" ry="8" fill="#FBBC04" filter="url(#cellShadow)"/>
<text x="146" y="272.5" font-family="'Helvetica Neue', Helvetica, Arial, sans-serif" font-size="15.5" font-weight="600" fill="#202124" text-anchor="middle">0.2</text>
<rect x="185" y="243" width="60" height="48" rx="8" ry="8" fill="#FBBC04" filter="url(#cellShadow)"/>
<text x="215" y="272.5" font-family="'Helvetica Neue', Helvetica, Arial, sans-serif" font-size="15.5" font-weight="600" fill="#202124" text-anchor="middle">3.5</text>
<rect x="254" y="243" width="60" height="48" rx="8" ry="8" fill="#FBBC04" filter="url(#cellShadow)"/>
<text x="284" y="272.5" font-family="'Helvetica Neue', Helvetica, Arial, sans-serif" font-size="15.5" font-weight="600" fill="#202124" text-anchor="middle">1.2</text>

<!-- Arrow 1: Prune -->
<text x="390" y="200" font-family="'Helvetica Neue', Helvetica, Arial, sans-serif" font-size="15" font-weight="600" fill="#202124" text-anchor="middle">Prune</text>
<line x1="345" y1="210" x2="425" y2="210" stroke="#4F46E5" stroke-width="2.6" stroke-linecap="round"/>
<polygon points="424,203 435,210 424,217" fill="#4F46E5"/>

<!-- Panel 2: Clamped weights -->
<text x="590" y="62" font-family="'Helvetica Neue', Helvetica, Arial, sans-serif" font-size="16" font-weight="600" fill="#202124" text-anchor="middle">Clamped weights</text>
<rect x="440" y="90" width="300" height="240" rx="18" ry="18" fill="#FFFFFF" filter="url(#cardShadow)"/>

<rect x="457" y="129" width="60" height="48" rx="8" ry="8" fill="#FBBC04" filter="url(#cellShadow)"/>
<text x="487" y="158.5" font-family="'Helvetica Neue', Helvetica, Arial, sans-serif" font-size="15.5" font-weight="600" fill="#202124" text-anchor="middle">2.1</text>
<rect x="526" y="129" width="60" height="48" rx="8" ry="8" fill="#202124" filter="url(#cellShadow)"/>
<text x="556" y="158.5" font-family="'Helvetica Neue', Helvetica, Arial, sans-serif" font-size="15.5" font-weight="600" fill="#FFFFFF" text-anchor="middle">0.0</text>
<rect x="595" y="129" width="60" height="48" rx="8" ry="8" fill="#FBBC04" filter="url(#cellShadow)"/>
<text x="625" y="158.5" font-family="'Helvetica Neue', Helvetica, Arial, sans-serif" font-size="15.5" font-weight="600" fill="#202124" text-anchor="middle">2.5</text>
<rect x="664" y="129" width="60" height="48" rx="8" ry="8" fill="#FBBC04" filter="url(#cellShadow)"/>
<text x="694" y="158.5" font-family="'Helvetica Neue', Helvetica, Arial, sans-serif" font-size="15.5" font-weight="600" fill="#202124" text-anchor="middle">3.6</text>

<rect x="457" y="186" width="60" height="48" rx="8" ry="8" fill="#202124" filter="url(#cellShadow)"/>
<text x="487" y="215.5" font-family="'Helvetica Neue', Helvetica, Arial, sans-serif" font-size="15.5" font-weight="600" fill="#FFFFFF" text-anchor="middle">0.0</text>
<rect x="526" y="186" width="60" height="48" rx="8" ry="8" fill="#FBBC04" filter="url(#cellShadow)"/>
<text x="556" y="215.5" font-family="'Helvetica Neue', Helvetica, Arial, sans-serif" font-size="15.5" font-weight="600" fill="#202124" text-anchor="middle">3.2</text>
<rect x="595" y="186" width="60" height="48" rx="8" ry="8" fill="#202124" filter="url(#cellShadow)"/>
<text x="625" y="215.5" font-family="'Helvetica Neue', Helvetica, Arial, sans-serif" font-size="15.5" font-weight="600" fill="#FFFFFF" text-anchor="middle">0.0</text>
<rect x="664" y="186" width="60" height="48" rx="8" ry="8" fill="#202124" filter="url(#cellShadow)"/>
<text x="694" y="215.5" font-family="'Helvetica Neue', Helvetica, Arial, sans-serif" font-size="15.5" font-weight="600" fill="#FFFFFF" text-anchor="middle">0.0</text>

<rect x="457" y="243" width="60" height="48" rx="8" ry="8" fill="#202124" filter="url(#cellShadow)"/>
<text x="487" y="272.5" font-family="'Helvetica Neue', Helvetica, Arial, sans-serif" font-size="15.5" font-weight="600" fill="#FFFFFF" text-anchor="middle">0.0</text>
<rect x="526" y="243" width="60" height="48" rx="8" ry="8" fill="#202124" filter="url(#cellShadow)"/>
<text x="556" y="272.5" font-family="'Helvetica Neue', Helvetica, Arial, sans-serif" font-size="15.5" font-weight="600" fill="#FFFFFF" text-anchor="middle">0.0</text>
<rect x="595" y="243" width="60" height="48" rx="8" ry="8" fill="#FBBC04" filter="url(#cellShadow)"/>
<text x="625" y="272.5" font-family="'Helvetica Neue', Helvetica, Arial, sans-serif" font-size="15.5" font-weight="600" fill="#202124" text-anchor="middle">3.5</text>
<rect x="664" y="243" width="60" height="48" rx="8" ry="8" fill="#FBBC04" filter="url(#cellShadow)"/>
<text x="694" y="272.5" font-family="'Helvetica Neue', Helvetica, Arial, sans-serif" font-size="15.5" font-weight="600" fill="#202124" text-anchor="middle">1.2</text>

<!-- Arrow 2: Store -->
<text x="810" y="200" font-family="'Helvetica Neue', Helvetica, Arial, sans-serif" font-size="15" font-weight="600" fill="#202124" text-anchor="middle">Store</text>
<line x1="765" y1="210" x2="845" y2="210" stroke="#4F46E5" stroke-width="2.6" stroke-linecap="round"/>
<polygon points="844,203 855,210 844,217" fill="#4F46E5"/>

<!-- Panel 3: Bit mask & non-zero floats -->
<text x="1050" y="62" font-family="'Helvetica Neue', Helvetica, Arial, sans-serif" font-size="16" font-weight="600" fill="#202124" text-anchor="middle">Bit mask &amp; non-zero floats</text>
<rect x="860" y="90" width="380" height="240" rx="18" ry="18" fill="#FFFFFF" filter="url(#cardShadow)"/>

<!-- Bit mask: row 1 (1, 0, 1, 1) -->
<rect x="880" y="171" width="24" height="24" rx="4" ry="4" fill="#FBBC04"/>
<text x="892" y="187.5" font-family="'Helvetica Neue', Helvetica, Arial, sans-serif" font-size="12" font-weight="600" fill="#202124" text-anchor="middle">1</text>
<rect x="907" y="171" width="24" height="24" rx="4" ry="4" fill="#202124"/>
<text x="919" y="187.5" font-family="'Helvetica Neue', Helvetica, Arial, sans-serif" font-size="12" font-weight="600" fill="#FFFFFF" text-anchor="middle">0</text>
<rect x="934" y="171" width="24" height="24" rx="4" ry="4" fill="#FBBC04"/>
<text x="946" y="187.5" font-family="'Helvetica Neue', Helvetica, Arial, sans-serif" font-size="12" font-weight="600" fill="#202124" text-anchor="middle">1</text>
<rect x="961" y="171" width="24" height="24" rx="4" ry="4" fill="#FBBC04"/>
<text x="973" y="187.5" font-family="'Helvetica Neue', Helvetica, Arial, sans-serif" font-size="12" font-weight="600" fill="#202124" text-anchor="middle">1</text>

<!-- Bit mask: row 2 (0, 1, 0, 0) -->
<rect x="880" y="198" width="24" height="24" rx="4" ry="4" fill="#202124"/>
<text x="892" y="214.5" font-family="'Helvetica Neue', Helvetica, Arial, sans-serif" font-size="12" font-weight="600" fill="#FFFFFF" text-anchor="middle">0</text>
<rect x="907" y="198" width="24" height="24" rx="4" ry="4" fill="#FBBC04"/>
<text x="919" y="214.5" font-family="'Helvetica Neue', Helvetica, Arial, sans-serif" font-size="12" font-weight="600" fill="#202124" text-anchor="middle">1</text>
<rect x="934" y="198" width="24" height="24" rx="4" ry="4" fill="#202124"/>
<text x="946" y="214.5" font-family="'Helvetica Neue', Helvetica, Arial, sans-serif" font-size="12" font-weight="600" fill="#FFFFFF" text-anchor="middle">0</text>
<rect x="961" y="198" width="24" height="24" rx="4" ry="4" fill="#202124"/>
<text x="973" y="214.5" font-family="'Helvetica Neue', Helvetica, Arial, sans-serif" font-size="12" font-weight="600" fill="#FFFFFF" text-anchor="middle">0</text>

<!-- Bit mask: row 3 (0, 0, 1, 1) -->
<rect x="880" y="225" width="24" height="24" rx="4" ry="4" fill="#202124"/>
<text x="892" y="241.5" font-family="'Helvetica Neue', Helvetica, Arial, sans-serif" font-size="12" font-weight="600" fill="#FFFFFF" text-anchor="middle">0</text>
<rect x="907" y="225" width="24" height="24" rx="4" ry="4" fill="#202124"/>
<text x="919" y="241.5" font-family="'Helvetica Neue', Helvetica, Arial, sans-serif" font-size="12" font-weight="600" fill="#FFFFFF" text-anchor="middle">0</text>
<rect x="934" y="225" width="24" height="24" rx="4" ry="4" fill="#FBBC04"/>
<text x="946" y="241.5" font-family="'Helvetica Neue', Helvetica, Arial, sans-serif" font-size="12" font-weight="600" fill="#202124" text-anchor="middle">1</text>
<rect x="961" y="225" width="24" height="24" rx="4" ry="4" fill="#FBBC04"/>
<text x="973" y="241.5" font-family="'Helvetica Neue', Helvetica, Arial, sans-serif" font-size="12" font-weight="600" fill="#202124" text-anchor="middle">1</text>

<!-- Non-zero floats row 0: 2.1, 2.5, 3.6, 3.2 -->
<rect x="1000" y="166" width="50" height="40" rx="7" ry="7" fill="#FBBC04" filter="url(#cellShadow)"/>
<text x="1025" y="191.5" font-family="'Helvetica Neue', Helvetica, Arial, sans-serif" font-size="14" font-weight="600" fill="#202124" text-anchor="middle">2.1</text>
<rect x="1058" y="166" width="50" height="40" rx="7" ry="7" fill="#FBBC04" filter="url(#cellShadow)"/>
<text x="1083" y="191.5" font-family="'Helvetica Neue', Helvetica, Arial, sans-serif" font-size="14" font-weight="600" fill="#202124" text-anchor="middle">2.5</text>
<rect x="1116" y="166" width="50" height="40" rx="7" ry="7" fill="#FBBC04" filter="url(#cellShadow)"/>
<text x="1141" y="191.5" font-family="'Helvetica Neue', Helvetica, Arial, sans-serif" font-size="14" font-weight="600" fill="#202124" text-anchor="middle">3.6</text>
<rect x="1174" y="166" width="50" height="40" rx="7" ry="7" fill="#FBBC04" filter="url(#cellShadow)"/>
<text x="1199" y="191.5" font-family="'Helvetica Neue', Helvetica, Arial, sans-serif" font-size="14" font-weight="600" fill="#202124" text-anchor="middle">3.2</text>

<!-- Non-zero floats row 1: 3.5, 1.2 -->
<rect x="1000" y="214" width="50" height="40" rx="7" ry="7" fill="#FBBC04" filter="url(#cellShadow)"/>
<text x="1025" y="239.5" font-family="'Helvetica Neue', Helvetica, Arial, sans-serif" font-size="14" font-weight="600" fill="#202124" text-anchor="middle">3.5</text>
<rect x="1058" y="214" width="50" height="40" rx="7" ry="7" fill="#FBBC04" filter="url(#cellShadow)"/>
<text x="1083" y="239.5" font-family="'Helvetica Neue', Helvetica, Arial, sans-serif" font-size="14" font-weight="600" fill="#202124" text-anchor="middle">1.2</text>

</svg>
